<svg xmlns="http://www.w3.org/2000/svg" viewBox="0 0 100 100">
  <path d="M50 5 C 20 5, 5 30, 5 60 L 95 60 C 95 30, 80 5, 50 5 Z" fill="#4A90E2"/>
  
  <path d="M50 5 L 40 20 L 60 20 Z" fill="#357ABD"/>
  
  <circle cx="25" cy="30" r="6" fill="white"/>
  <circle cx="25" cy="30" r="3" fill="#333"/>
  
  <circle cx="75" cy="30" r="6" fill="white"/>
  <circle cx="75" cy="30" r="3" fill="#333"/>
  
  <ellipse cx="50" cy="65" rx="35" ry="25" fill="white"/>
  
  <ellipse cx="50" cy="68" rx="30" ry="20" fill="#FFD1A9"/>
  
  <circle cx="38" cy="68" r="3" fill="#333"/>
  <circle cx="62" cy="68" r="3" fill="#333"/>
  
  <circle cx="32" cy="75" r="3" fill="#FFB6C1" opacity="0.7"/>
  <circle cx="68" cy="75" r="3" fill="#FFB6C1" opacity="0.7"/>
  
  <polygon points="30,50 35,60 40,50" fill="white"/>
  <polygon points="45,48 50,58 55,48" fill="white"/>
  <polygon points="60,50 65,60 70,50" fill="white"/>
</svg>
